<svg xmlns="http://www.w3.org/2000/svg" viewBox="0 0 1200 760">
  <defs>
    <linearGradient id="bg" x1="0" x2="1" y1="0" y2="1">
      <stop stop-color="#173c2e"/><stop offset="1" stop-color="#0d241c"/>
    </linearGradient>
    <linearGradient id="sun" x1="0" x2="1">
      <stop stop-color="#f6c451"/><stop offset="1" stop-color="#d99a1d"/>
    </linearGradient>
    <filter id="shadow"><feDropShadow dx="0" dy="18" stdDeviation="22" flood-opacity=".25"/></filter>
  </defs>
  <rect width="1200" height="760" rx="64" fill="url(#bg)"/>
  <circle cx="1005" cy="120" r="190" fill="#fff" opacity=".035"/>
  <circle cx="1050" cy="650" r="300" fill="#fff" opacity=".025"/>
  <g filter="url(#shadow)">
    <rect x="170" y="155" width="860" height="470" rx="42" fill="#f7f3e9"/>
    <rect x="215" y="205" width="330" height="340" rx="26" fill="#ffffff"/>
    <rect x="575" y="205" width="410" height="150" rx="26" fill="#e8efe8"/>
    <rect x="575" y="385" width="195" height="160" rx="26" fill="#f4d78f"/>
    <rect x="790" y="385" width="195" height="160" rx="26" fill="#dbe7df"/>
    <rect x="260" y="258" width="238" height="20" rx="10" fill="#d6ddd7"/>
    <rect x="260" y="310" width="180" height="20" rx="10" fill="#d6ddd7"/>
    <rect x="260" y="362" width="205" height="20" rx="10" fill="#d6ddd7"/>
    <rect x="260" y="414" width="155" height="20" rx="10" fill="#d6ddd7"/>
    <circle cx="644" cy="278" r="38" fill="url(#sun)"/>
    <rect x="700" y="247" width="220" height="16" rx="8" fill="#7f9589"/>
    <rect x="700" y="284" width="160" height="14" rx="7" fill="#a8b7ae"/>
    <path d="M635 455c38-52 96-44 118 4-23 42-84 57-118-4Z" fill="#fff" opacity=".9"/>
    <path d="M850 493c40-70 96-73 124-18-24 52-84 79-124 18Z" fill="#ffffff" opacity=".9"/>
  </g>
  <g transform="translate(105 530)">
    <path d="M0 42h135l-16 96H24Z" fill="url(#sun)"/>
    <path d="M28 42c2-49 77-49 79 0" fill="none" stroke="#f6c451" stroke-width="18" stroke-linecap="round"/>
    <circle cx="42" cy="84" r="8" fill="#173c2e"/><circle cx="91" cy="84" r="8" fill="#173c2e"/>
    <path d="M45 115c18 12 31 12 48 0" fill="none" stroke="#173c2e" stroke-width="8" stroke-linecap="round"/>
    <path d="M108 14c30-36 67-14 63 21-29 4-49-3-63-21Z" fill="#79b84a"/>
  </g>
</svg>
